<?xml version="1.0" encoding="UTF-8"?>
<svg width="120px" height="80px" viewBox="0 0 120 80" version="1.1" xmlns="http://www.w3.org/2000/svg" xmlns:xlink="http://www.w3.org/1999/xlink">
    <title>function-button/blackberry</title>
    <g id="function-button/blackberry" stroke="none" stroke-width="1" fill="none" fill-rule="evenodd">
        <path d="M49.2582596,52.7068406 L46.655197,65 L56.3581792,65 C63.7837832,65 66.0322117,61.3652283 66.0322117,58.0846962 C66.0322117,55.6620506 64.6715747,52.7068406 58.6066077,52.7068406 L49.2582596,52.7068406 Z M75.5582789,45.1119751 L72.984166,57.3762169 L82.6879523,57.3762169 C90.0838024,57.3762169 92.3611806,53.9181634 92.3611806,50.4609132 C92.3611806,48.0374643 90.9707898,45.1119751 84.9363808,45.1119751 L75.5582789,45.1119751 L75.5582789,45.1119751 Z M52.897079,33.4991807 L50.1460511,45.7923401 L59.8192794,45.7923401 C67.4226025,45.7923401 69.7007849,42.1575684 69.7007849,38.8770363 C69.7007849,36.4535874 68.310394,33.4991807 62.2454271,33.4991807 L52.8673251,33.4991807 L52.897079,33.4991807 Z M27.6030626,33.4991807 L25,45.7923401 L34.7029822,45.7923401 C42.3063053,45.7923401 44.4067685,42.1575684 44.4067685,38.8770363 C44.4067685,36.4535874 43.0163777,33.4991807 36.9514107,33.4991807 L27.6030626,33.4991807 L27.6030626,33.4991807 Z M79.1970982,25.9043151 L76.4452662,38.1974745 L86.1490526,38.1974745 C93.7515715,38.1974745 96,34.7402243 96,31.282974 C96,28.8595251 94.6096091,25.9043151 88.6041499,25.9043151 L79.1970982,25.9043151 L79.1970982,25.9043151 Z M56.1804601,15 L53.5773975,27.2931594 L63.2811838,27.2931594 C70.8539489,27.2931594 72.984166,23.6583877 72.984166,20.3786589 C72.984166,17.95521 71.5937751,15 65.5296123,15 L56.1804601,15 L56.1804601,15 Z M31.0641628,15 L28.4611002,27.2931594 L38.1640824,27.2931594 C45.6194403,27.2931594 47.8678688,23.6583877 47.8678688,20.3786589 C47.8678688,17.95521 46.4774779,15 40.4125109,15 L31.0641628,15 L31.0641628,15 Z" id="Fill-1" fill="#FFFFFF"></path>
    </g>
</svg>