<?xml version="1.0" encoding="UTF-8"?>
<svg width="120px" height="80px" viewBox="0 0 120 80" version="1.1" xmlns="http://www.w3.org/2000/svg" xmlns:xlink="http://www.w3.org/1999/xlink">
    <title>function-button/hang_up</title>
    <g id="function-button/hang_up" stroke="none" stroke-width="1" fill="none" fill-rule="evenodd">
        <g id="Group-3" transform="translate(20.320427, 14.637076)">
            <path d="M0.679572782,3.3629236 C0.679572782,19.2860005 7.05457278,22.3629236 21.6795728,22.3629236 C36.3045728,22.3629236 49.4295728,22.3629236 62.6617156,22.3629236 C73.7440189,22.3629236 77.7520813,14.9554953 78.6795728,4.3629236" id="Path-2-Copy" stroke="#FF3B30" stroke-width="9.1" transform="translate(39.679573, 12.862924) rotate(175.000000) translate(-39.679573, -12.862924) "></path>
            <g id="Group" transform="translate(26.679573, 14.362924)" fill="#FF3B30">
                <path d="M30,22.2 C30,30.3738143 23.2842712,37 15,37 C6.71572875,37 0,30.3738143 0,22.2 C0,16.131248 3.70205091,10.9156276 8.99949616,8.63170652 L8.99894971,15.4218299 C7.08642828,17.0715842 5.87837838,19.4965955 5.87837838,22.2 C5.87837838,27.1705627 9.96226748,31.2 15,31.2 C20.0377325,31.2 24.1216216,27.1705627 24.1216216,22.2 C24.1216216,19.4961234 22.9131497,17.0707371 21.0000482,15.4209656 L20.9994986,8.63127318 C26.2974808,10.9149678 30,16.1308642 30,22.2 Z" id="Combined-Shape"></path>
                <rect id="Rectangle" x="12" y="0" width="6" height="22.2" rx="3"></rect>
            </g>
        </g>
    </g>
</svg>