<?xml version="1.0" encoding="UTF-8"?>
<svg width="60px" height="60px" viewBox="0 0 60 60" version="1.1" xmlns="http://www.w3.org/2000/svg" xmlns:xlink="http://www.w3.org/1999/xlink">
    <title>normal-key/alt</title>
    <g id="normal-key/alt" stroke="none" stroke-width="1" fill="none" fill-rule="evenodd" fill-opacity="0.8">
        <g id="alt" transform="translate(15.992188, 18.453125)" fill="#FFFFFF" fill-rule="nonzero">
            <path d="M5.40625,22.828125 C7.59375,22.828125 9.65625,21.609375 10.625,19.75 L10.6875,19.75 L10.6875,22.546875 L13.265625,22.546875 L13.265625,11.3125 C13.265625,8.078125 10.859375,6.015625 7.046875,6.015625 C3.203125,6.015625 0.796875,8.171875 0.609375,10.984375 L3.234375,10.984375 C3.578125,9.390625 4.890625,8.40625 6.984375,8.40625 C9.234375,8.40625 10.546875,9.59375 10.546875,11.578125 L10.546875,12.9375 L5.890625,13.203125 C2.140625,13.421875 0,15.171875 0,17.953125 C0,20.875 2.171875,22.828125 5.40625,22.828125 Z M6.015625,20.515625 C4.0625,20.515625 2.765625,19.5 2.765625,17.953125 C2.765625,16.421875 4.015625,15.453125 6.203125,15.3125 L10.546875,15.046875 L10.546875,16.375 C10.546875,18.71875 8.578125,20.515625 6.015625,20.515625 Z" id="Shape"></path>
            <polygon id="Path" points="16.859375 22.546875 19.578125 22.546875 19.578125 0 16.859375 0"></polygon>
            <path d="M24.125,2.375 L24.125,6.296875 L21.703125,6.296875 L21.703125,8.53125 L24.125,8.53125 L24.125,18.328125 C24.125,21.453125 25.28125,22.671875 28.265625,22.671875 C28.90625,22.671875 29.65625,22.625 29.984375,22.546875 L29.984375,20.265625 C29.796875,20.296875 29.171875,20.34375 28.859375,20.34375 C27.46875,20.34375 26.84375,19.671875 26.84375,18.1875 L26.84375,8.53125 L30,8.53125 L30,6.296875 L26.84375,6.296875 L26.84375,2.375 L24.125,2.375 Z" id="Path"></path>
        </g>
    </g>
</svg>