<?xml version="1.0" encoding="UTF-8"?>
<svg width="60px" height="60px" viewBox="0 0 60 60" version="1.1" xmlns="http://www.w3.org/2000/svg" xmlns:xlink="http://www.w3.org/1999/xlink">
    <title>normal-key/alt</title>
    <g id="normal-key/alt" stroke="none" stroke-width="1" fill="none" fill-rule="evenodd" fill-opacity="0.8">
        <path d="M20.153125,41.265625 C22.278125,41.265625 24.35625,40.15625 25.309375,38.359375 L25.3875,38.359375 L25.3875,41 L29.1375,41 L29.1375,29.59375 C29.1375,26.265625 26.465625,24.09375 22.35625,24.09375 C18.1375,24.09375 15.496875,26.3125 15.325,29.40625 L18.934375,29.40625 C19.184375,28.03125 20.35625,27.140625 22.2,27.140625 C24.121875,27.140625 25.29375,28.140625 25.29375,29.875 L25.29375,31.0625 L20.91875,31.3125 C16.8875,31.5625 14.621875,33.328125 14.621875,36.265625 C14.621875,39.25 16.95,41.265625 20.153125,41.265625 Z M21.325,38.328125 C19.6375,38.328125 18.5125,37.46875 18.5125,36.109375 C18.5125,34.796875 19.590625,33.953125 21.465625,33.828125 L25.29375,33.59375 L25.29375,34.859375 C25.29375,36.859375 23.528125,38.328125 21.325,38.328125 Z M31.571875,41 L35.4625,41 L35.4625,18.453125 L31.571875,18.453125 L31.571875,41 Z M39.053125,20.5625 L39.053125,24.4375 L36.678125,24.4375 L36.678125,27.4375 L39.053125,27.4375 L39.053125,36.59375 C39.053125,39.8125 40.459375,41.078125 44.0375,41.078125 C44.865625,41.078125 45.63125,41.015625 46.053125,40.921875 L46.053125,37.953125 C45.803125,38 45.303125,38.03125 44.94375,38.03125 C43.56875,38.03125 42.94375,37.40625 42.94375,36.046875 L42.94375,27.4375 L46.06875,27.4375 L46.06875,24.4375 L42.94375,24.4375 L42.94375,20.5625 L39.053125,20.5625 Z" id="Combined-Shape" fill="#FFFFFF" fill-rule="nonzero"></path>
    </g>
</svg>