<?xml version="1.0" encoding="UTF-8"?>
<svg width="291px" height="80px" viewBox="0 0 291 80" version="1.1" xmlns="http://www.w3.org/2000/svg" xmlns:xlink="http://www.w3.org/1999/xlink">
    <title>bg-key/space</title>
    <g id="bg-key/space" stroke="none" stroke-width="1" fill="none" fill-rule="evenodd">
        <rect id="Rectangle" fill="#2F2F2F" transform="translate(145.500000, 40.000000) scale(-1, 1) translate(-145.500000, -40.000000) " x="0" y="0" width="291" height="80"></rect>
        <path d="M92.610446,-62 L199.389554,-62 C214.986073,-62 223.947535,-59.7257725 231.93272,-55.4552488 C239.917905,-51.184725 246.184725,-44.9179049 250.455249,-36.9327197 C254.725773,-28.9475346 257,-19.9860734 257,-4.38955403 L257,7.38955403 C257,22.9860734 254.725773,31.9475346 250.455249,39.9327197 C246.184725,47.9179049 239.917905,54.184725 231.93272,58.4552488 C223.947535,62.7257725 214.986073,65 199.389554,65 L92.610446,65 C77.0139266,65 68.0524654,62.7257725 60.0672803,58.4552488 C52.0820951,54.184725 45.815275,47.9179049 41.5447512,39.9327197 C37.2742275,31.9475346 35,22.9860734 35,7.38955403 L35,-4.38955403 C35,-19.9860734 37.2742275,-28.9475346 41.5447512,-36.9327197 C45.815275,-44.9179049 52.0820951,-51.184725 60.0672803,-55.4552488 C68.0524654,-59.7257725 77.0139266,-62 92.610446,-62 Z" id="Rectangle" fill="#000000"></path>
    </g>
</svg>