<?xml version="1.0" encoding="UTF-8"?>
<svg width="48px" height="48px" viewBox="0 0 48 48" version="1.1" xmlns="http://www.w3.org/2000/svg" xmlns:xlink="http://www.w3.org/1999/xlink">
    <title>logo</title>
    <g id="logo" stroke="none" stroke-width="1" fill="none" fill-rule="evenodd">
        <path d="M18.0082908,33.1158307 L16.5051138,40 L22.1082443,40 C26.3962692,40 27.6946574,37.9645278 27.6946574,36.1274299 C27.6946574,34.7707483 26.9089375,33.1158307 23.4066326,33.1158307 L18.0082908,33.1158307 Z M33.1956258,28.862706 L31.7091663,35.7306815 L37.3127612,35.7306815 C41.5836042,35.7306815 42.8987099,33.7941715 42.8987099,31.8581114 C42.8987099,30.50098 42.0958082,28.862706 38.6111495,28.862706 L33.1956258,28.862706 L33.1956258,28.862706 Z M20.1095808,22.3595412 L18.5209591,29.2437104 L24.1069078,29.2437104 C28.4975592,29.2437104 29.8131293,27.2082383 29.8131293,25.3711403 C29.8131293,24.0140089 29.0102275,22.3595412 25.5079227,22.3595412 L20.092399,22.3595412 L20.1095808,22.3595412 Z M5.50317699,22.3595412 L4,29.2437104 L9.60313056,29.2437104 C13.9937819,29.2437104 15.2067255,27.2082383 15.2067255,25.3711403 C15.2067255,24.0140089 14.4038237,22.3595412 10.9015188,22.3595412 L5.50317699,22.3595412 L5.50317699,22.3595412 Z M35.2969159,18.1064165 L33.7078298,24.9905857 L39.3114247,24.9905857 C43.7016117,24.9905857 45,23.0545256 45,21.1184654 C45,19.7613341 44.1970982,18.1064165 40.729157,18.1064165 L35.2969159,18.1064165 L35.2969159,18.1064165 Z M22.0056178,12 L20.5024408,18.8841693 L26.1060357,18.8841693 C30.4790409,18.8841693 31.7091663,16.8486971 31.7091663,15.012049 C31.7091663,13.6549176 30.9062645,12 27.404424,12 L22.0056178,12 L22.0056178,12 Z M7.5018405,12 L5.99866351,18.8841693 L11.6017941,18.8841693 C15.9070007,18.8841693 17.205389,16.8486971 17.205389,15.012049 C17.205389,13.6549176 16.4024872,12 12.9001824,12 L7.5018405,12 L7.5018405,12 Z" id="Fill-1-Copy" fill="#FFCC00"></path>
    </g>
</svg>