<?xml version="1.0" encoding="UTF-8"?>
<svg width="60px" height="60px" viewBox="0 0 60 60" version="1.1" xmlns="http://www.w3.org/2000/svg" xmlns:xlink="http://www.w3.org/1999/xlink">
    <title>bottom-key/sym</title>
    <g id="bottom-key/sym" stroke="none" stroke-width="1" fill="none" fill-rule="evenodd" fill-opacity="0.8">
        <path d="M3.7546875,29.1875 C3.7546875,31.640625 5.3484375,33.203125 8.5203125,33.90625 L11.2703125,34.515625 C13.0046875,34.90625 13.5984375,35.46875 13.5984375,36.46875 C13.5984375,37.703125 12.4265625,38.484375 10.5359375,38.484375 C8.5671875,38.484375 7.4578125,37.671875 7.1609375,36.0625 L3.3328125,36.0625 C3.6453125,39.265625 6.2078125,41.328125 10.5359375,41.328125 C14.5984375,41.328125 17.4734375,39.21875 17.4734375,36.09375 C17.4734375,33.6875 16.1453125,32.359375 12.7078125,31.59375 L9.9578125,30.984375 C8.2234375,30.59375 7.5359375,29.9375 7.5359375,28.984375 C7.5359375,27.765625 8.6765625,26.953125 10.3953125,26.953125 C12.1921875,26.953125 13.3015625,27.90625 13.4578125,29.40625 L17.0828125,29.40625 C16.9890625,26.265625 14.4265625,24.09375 10.3953125,24.09375 C6.3953125,24.09375 3.7546875,26.15625 3.7546875,29.1875 Z M20.9546875,47.15625 C24.7359375,47.15625 26.5640625,45.765625 27.9703125,41.65625 L33.9703125,24.4375 L29.8765625,24.4375 L25.9703125,37.6875 L25.8921875,37.6875 L22.0015625,24.4375 L17.7515625,24.4375 L23.6421875,41.015625 C23.6578125,41.0625 23.4078125,41.890625 23.4078125,41.9375 C22.9859375,43.46875 22.1578125,44.078125 20.5484375,44.078125 C20.3140625,44.078125 19.6265625,44.0625 19.4234375,44.015625 L19.4234375,47.09375 C19.6265625,47.140625 20.7203125,47.15625 20.9546875,47.15625 Z M35.0140625,41 L38.9046875,41 L38.9046875,30.859375 C38.9046875,28.859375 40.2171875,27.40625 42.0921875,27.40625 C43.9046875,27.40625 45.0296875,28.546875 45.0296875,30.390625 L45.0296875,41 L48.8109375,41 L48.8109375,30.765625 C48.8109375,28.78125 50.0921875,27.40625 51.9671875,27.40625 C53.8734375,27.40625 54.9359375,28.5625 54.9359375,30.59375 L54.9359375,41 L58.8265625,41 L58.8265625,29.640625 C58.8265625,26.328125 56.6859375,24.125 53.4203125,24.125 C51.0296875,24.125 49.0609375,25.40625 48.2640625,27.453125 L48.1703125,27.453125 C47.5609375,25.328125 45.8890625,24.125 43.5453125,24.125 C41.2953125,24.125 39.5453125,25.390625 38.8265625,27.3125 L38.7484375,27.3125 L38.7484375,24.4375 L35.0140625,24.4375 L35.0140625,41 Z" id="Combined-Shape" fill="#FFFFFF" fill-rule="nonzero"></path>
    </g>
</svg>