<?xml version="1.0" encoding="UTF-8"?>
<svg width="60px" height="60px" viewBox="0 0 60 60" version="1.1" xmlns="http://www.w3.org/2000/svg" xmlns:xlink="http://www.w3.org/1999/xlink">
    <title>bottom-key/sym</title>
    <g id="bottom-key/sym" stroke="none" stroke-width="1" fill="none" fill-rule="evenodd" fill-opacity="0.8">
        <g id="sym" transform="translate(5.468750, 24.468750)" fill="#FFFFFF" fill-rule="nonzero">
            <path d="M0.4375,4.765625 C0.4375,7.109375 1.921875,8.53125 4.984375,9.265625 L7.5625,9.890625 C9.421875,10.34375 10.0625,11.015625 10.0625,12.1875 C10.0625,13.65625 8.703125,14.59375 6.5,14.59375 C4.296875,14.59375 3.046875,13.703125 2.71875,11.84375 L0,11.84375 C0.3125,14.890625 2.6875,16.8125 6.5,16.8125 C10.125,16.8125 12.796875,14.8125 12.796875,11.984375 C12.796875,9.65625 11.609375,8.375 8.328125,7.578125 L5.75,6.953125 C3.9375,6.515625 3.109375,5.75 3.109375,4.625 C3.109375,3.203125 4.421875,2.21875 6.40625,2.21875 C8.40625,2.21875 9.65625,3.265625 9.859375,4.96875 L12.453125,4.96875 C12.34375,2.09375 9.96875,0 6.40625,0 C2.890625,0 0.4375,1.984375 0.4375,4.765625 Z" id="Path"></path>
            <path d="M15.96875,22.609375 C18.90625,22.609375 20.25,21.46875 21.640625,17.671875 L28.03125,0.28125 L25.171875,0.28125 L20.671875,13.8125 L20.625,13.8125 L16.125,0.28125 L13.21875,0.28125 L19.21875,16.546875 L18.84375,17.6875 C18.21875,19.578125 17.375,20.3125 15.859375,20.3125 C15.515625,20.3125 15.09375,20.296875 14.796875,20.234375 L14.796875,22.515625 C15.09375,22.578125 15.640625,22.609375 15.96875,22.609375 Z" id="Path"></path>
            <path d="M29.171875,16.53125 L31.890625,16.53125 L31.890625,6.34375 C31.890625,4.09375 33.453125,2.40625 35.609375,2.40625 C37.625,2.40625 38.9375,3.6875 38.9375,5.640625 L38.9375,16.53125 L41.65625,16.53125 L41.65625,6.203125 C41.65625,4 43.171875,2.40625 45.328125,2.40625 C47.46875,2.40625 48.703125,3.71875 48.703125,5.9375 L48.703125,16.53125 L51.421875,16.53125 L51.421875,5.3125 C51.421875,2.09375 49.34375,0 46.125,0 C43.84375,0 41.9375,1.15625 41.03125,3.09375 L40.96875,3.09375 C40.265625,1.125 38.625,0 36.40625,0 C34.21875,0 32.5625,1.15625 31.796875,2.875 L31.734375,2.875 L31.734375,0.28125 L29.171875,0.28125 L29.171875,16.53125 Z" id="Path"></path>
        </g>
    </g>
</svg>