<?xml version="1.0" encoding="UTF-8"?>
<svg width="127px" height="127px" viewBox="0 0 127 127" version="1.1" xmlns="http://www.w3.org/2000/svg" xmlns:xlink="http://www.w3.org/1999/xlink">
    <title>tackpad/bb9900</title>
    <g id="tackpad/bb9900" stroke="none" stroke-width="1" fill="none" fill-rule="evenodd">
        <path d="M74.7643668,4.50089005 C90.0456428,4.54302514 96.6077816,6.08161771 102.691591,9.21062342 L102.691591,9.21062342 L103.161231,9.45557349 C109.425137,12.8094558 114.177337,17.5481463 117.414089,23.5935499 L117.414089,23.5935499 L117.792004,24.3135173 C120.963301,30.4815838 122.5,37.1436475 122.5,52.8865328 L122.5,52.8865328 L122.5,74.1134672 C122.5,89.860699 120.962453,96.5220941 117.789377,102.691591 L117.789377,102.691591 L117.544427,103.161231 C114.190544,109.425137 109.451854,114.177337 103.40645,117.414089 L103.40645,117.414089 L102.686483,117.792004 C96.5184162,120.963301 89.8563525,122.5 74.1134672,122.5 L74.1134672,122.5 L52.8865328,122.5 C37.139301,122.5 30.4779059,120.962453 24.3084086,117.789377 L24.3084086,117.789377 L23.8387693,117.544427 C17.5748635,114.190544 12.8226626,109.451854 9.58591133,103.40645 L9.58591133,103.40645 L9.2079964,102.686483 C6.08075194,96.6040977 4.54322931,90.041288 4.50086904,74.7454857 L4.50086904,74.7454857 L4.50089005,52.2356332 C4.54302514,36.9543572 6.08161771,30.3922184 9.21062342,24.3084086 L9.21062342,24.3084086 L9.45557349,23.8387693 C12.8094558,17.5748635 17.5481463,12.8226626 23.5935499,9.58591133 L23.5935499,9.58591133 L24.3135172,9.2079964 C30.3959023,6.08075194 36.958712,4.54322931 52.2545143,4.50086904 L52.2545143,4.50086904 Z" id="Rectangle-Copy" stroke="#FFFFFF" stroke-width="9" fill="#000000"></path>
    </g>
</svg>