<?xml version="1.0" encoding="UTF-8"?>
<svg width="127px" height="127px" viewBox="0 0 127 127" version="1.1" xmlns="http://www.w3.org/2000/svg" xmlns:xlink="http://www.w3.org/1999/xlink">
    <title>tackpad/bbq20</title>
    <g id="tackpad/bbq20" stroke="none" stroke-width="1" fill="none" fill-rule="evenodd">
        <path d="M80.1957698,4.50081122 C93.4683151,4.53543486 99.2726352,5.67913784 104.303844,8.07565105 C105.141876,8.48545955 105.545517,8.69408823 105.949451,8.91011441 C111.183273,11.7091931 115.290807,15.8167273 118.089886,21.0505494 C118.305912,21.4544832 118.51454,21.8581238 118.715498,22.2654713 C121.358308,27.8059774 122.5,33.7132586 122.5,47.4318762 L122.5,47.4318762 L122.5,79.5681238 C122.5,93.2867414 121.358308,99.1940226 118.924349,104.303844 C118.51454,105.141876 118.305912,105.545517 118.089886,105.949451 C115.290807,111.183273 111.183273,115.290807 105.949451,118.089886 C105.545517,118.305912 105.141876,118.51454 104.734529,118.715498 C99.1940226,121.358308 93.2867414,122.5 79.5681238,122.5 L79.5681238,122.5 L47.4318762,122.5 C33.7132586,122.5 27.8059774,121.358308 22.6961563,118.924349 C21.8581238,118.51454 21.4544832,118.305912 21.0505494,118.089886 C15.8167273,115.290807 11.7091931,111.183273 8.91011441,105.949451 C8.69408823,105.545517 8.48545955,105.141876 8.28450209,104.734529 C5.67915962,99.2726769 4.53626496,93.4676535 4.50080442,80.1756783 L4.50080442,80.1756783 L4.50081122,46.8042302 C4.53543486,33.5316849 5.67913784,27.7273648 8.07565105,22.6961563 C8.48545955,21.8581238 8.69408823,21.4544832 8.91011441,21.0505494 C11.7091931,15.8167273 15.8167273,11.7091931 21.0505494,8.91011441 C21.4544832,8.69408823 21.8581238,8.48545955 22.2654713,8.28450209 C27.7273231,5.67915962 33.5323465,4.53626496 46.8243217,4.50080442 L46.8243217,4.50080442 Z" id="Rectangle-Copy" stroke="#FFFFFF" stroke-width="9" fill="#000000"></path>
    </g>
</svg>